<svg xmlns="http://www.w3.org/2000/svg" version="1.1" xmlns:xlink="http://www.w3.org/1999/xlink" width="1500" height="1500" viewBox="0 0 1500 1500"><rect width="1500" height="1500" x="0" y="0" id="background" stroke="transparent" fill="#ffffff"></rect><svg xml:space="preserve" width="1000" height="1000" data-version="2" data-id="lg_mymfRcnp9a0u7KskDN" viewBox="0 0 511 481" x="250" y="250"><rect width="100%" height="100%" fill="transparent"></rect><path fill="#465fff" d="M359.17 46.647c-16.014 0-29.5 13.486-29.5 29.5v320.279c0 16.014 13.486 29.5 29.5 29.5s29.5-13.486 29.5-29.5V76.146c0-16.013-12.643-29.499-29.5-29.499M251.286 4.505c-16.014 0-29.5 13.486-29.5 29.5v404.563c0 16.014 13.486 29.5 29.5 29.5s29.5-13.486 29.5-29.5V34.005c0-16.014-13.486-29.5-29.5-29.5M143.403 105.646c-16.014 0-29.5 13.485-29.5 29.5v202.281c0 16.014 13.486 29.5 29.5 29.5s29.5-13.486 29.5-29.5V135.145c0-16.014-13.486-29.499-29.5-29.499M34.676 147.788c-16.014 0-29.5 13.485-29.5 29.5v117.997c0 16.014 13.486 29.5 29.5 29.5s29.5-13.486 29.5-29.5V177.287c0-16.014-12.643-29.499-29.5-29.499m433.22 0c-16.014 0-29.5 13.485-29.5 29.5v117.997c0 16.014 13.486 29.5 29.5 29.5s29.5-13.486 29.5-29.5V177.287c0-16.014-13.486-29.499-29.5-29.499"></path></svg></svg>